<svg width="640" height="634" viewBox="0 0 640 634" fill="none">
<g id="hero">
<rect id="Rectangle 4" x="320" width="160" height="160" rx="22" fill="#6E00FF"/>
<rect id="Rectangle 7" x="480" y="155" width="160" height="160" rx="22" fill="#A561FF"/>
<rect id="Rectangle 9" y="315" width="160" height="160" rx="22" fill="#A561FF"/>
<rect id="Rectangle 6" x="320" y="315" width="160" height="160" rx="22" fill="#6E00FF"/>
<path id="Rectangle 5" d="M160 182C160 169.85 169.85 160 182 160H298C310.15 160 320 169.85 320 182V298C320 310.15 310.15 320 298 320H182C169.85 320 160 310.15 160 298V182Z" fill="#FFFEFF"/>
<path id="Rectangle 8" d="M160 496C160 483.85 169.85 474 182 474H298C310.15 474 320 483.85 320 496V612C320 624.15 310.15 634 298 634H182C169.85 634 160 624.15 160 612V496Z" fill="#FFFEFF"/>
<ellipse id="Ellipse 2" cx="400" cy="237.5" rx="80" ry="77.5" fill="#FF64CB"/>
<ellipse id="Ellipse 3" cx="240" cy="397.5" rx="80" ry="77.5" fill="#07F0FF"/>
</g>
</svg>
